<svg xmlns="http://www.w3.org/2000/svg" xmlns:xlink="http://www.w3.org/1999/xlink" width="566" height="184" viewBox="0 0 566 184"><defs><style>.a,.i{fill:#fff;}.b{fill:#f5f5f5;}.c{fill:#43b05c;}.d{fill:#e6e6e6;}.e{fill:url(#c);}.f{fill:#999;}.g{fill:#757575;}.h,.k{fill:none;}.h{stroke:#757575;stroke-linecap:round;stroke-linejoin:round;stroke-width:0.8px;}.i{stroke:#707070;stroke-width:0.5px;}.j{stroke:none;}.l{filter:url(#a);}</style><filter id="a" x="0" y="0" width="566" height="184" filterUnits="userSpaceOnUse"><feOffset input="SourceAlpha"/><feGaussianBlur stdDeviation="5" result="b"/><feFlood flood-opacity="0.161"/><feComposite operator="in" in2="b"/><feComposite in="SourceGraphic"/></filter><linearGradient id="c" x1="1" y1="0.5" x2="0" y2="0.5" gradientUnits="objectBoundingBox"><stop offset="0" stop-color="#f7941d"/><stop offset="1" stop-color="#ffcb05"/></linearGradient></defs><g transform="translate(-3 -164)"><g class="l" transform="matrix(1, 0, 0, 1, 3, 164)"><rect class="a" width="536" height="154" rx="8" transform="translate(15 15)"/></g><path class="b" d="M0,0H536a0,0,0,0,1,0,0V32a8,8,0,0,1-8,8H8a8,8,0,0,1-8-8V0A0,0,0,0,1,0,0Z" transform="translate(18 293)"/><g transform="translate(447.752 202.787)"><rect class="c" width="89" height="36" rx="4" transform="translate(0.248 0.213)"/><path class="a" d="M-11.5-8.948h.79q.242,0,.462-.005t.328-.005q.462,0,.892-.011a3.353,3.353,0,0,0,.816-.118,2.363,2.363,0,0,0,.73-.349,2.407,2.407,0,0,0,.634-.7H-12a7.1,7.1,0,0,1,.338-.693q.209-.381.414-.725.236-.4.494-.795H-7.24a.572.572,0,0,0-.134-.322,1.788,1.788,0,0,0-.349-.349,2.274,2.274,0,0,0-.467-.279,1.174,1.174,0,0,0-.478-.113h-3.459q.086-.129.247-.36t.354-.5q.193-.269.392-.553t.365-.516q.167-.231.279-.376a.874.874,0,0,1,.124-.145h8.6a.6.6,0,0,1-.064.193q-.075.183-.188.451l-.247.585q-.134.317-.252.585t-.2.451l-.086.183H-4l.07.209q.048.145.1.317t.1.322q.043.15.054.215H-.859l-1.321,2.213h-1.4a3.77,3.77,0,0,1-.591,1.429,3.554,3.554,0,0,1-.967.929,4.824,4.824,0,0,1-1.208.559,9.869,9.869,0,0,1-1.316.306L-3.276-.881v.87H-6.306l-5.2-6.929Zm23.085,1.1q0,4.114-1.348,6.091A4.678,4.678,0,0,1,6.08.215a4.624,4.624,0,0,1-4.1-2.041A10.792,10.792,0,0,1,.6-7.853q0-4.157,1.343-6.128A4.658,4.658,0,0,1,6.08-15.952a4.636,4.636,0,0,1,4.109,2.063A10.813,10.813,0,0,1,11.58-7.853Zm-7.681,0a12.219,12.219,0,0,0,.5,4.141A1.73,1.73,0,0,0,6.08-2.46,1.748,1.748,0,0,0,7.756-3.728a11.881,11.881,0,0,0,.516-4.125A11.845,11.845,0,0,0,7.75-12a1.75,1.75,0,0,0-1.67-1.262A1.734,1.734,0,0,0,4.4-12,12.2,12.2,0,0,0,3.9-7.853Z" transform="translate(43.248 27.213)"/></g><rect class="d" width="394" height="6" rx="3" transform="translate(43 260)"/><rect class="e" width="330" height="6" rx="3" transform="translate(43 260)"/><path class="f" d="M4.976-4.032c2.56,0,4.064-1.28,4.064-3.52,0-2.272-1.52-3.488-4.064-3.488H1.216V0H3.072V-4.032Zm-1.9-1.6V-9.424H4.784c1.7,0,2.4.672,2.4,1.872,0,1.264-.7,1.92-2.4,1.92ZM16.048-6.96a2.425,2.425,0,0,0-2.224-1.184,1.993,1.993,0,0,0-1.792.864V-8h-1.68V0h1.712V-4.832c0-1.152.608-1.792,1.472-1.792A1.326,1.326,0,0,1,14.688-6ZM17.056,0h1.712V-8H17.056Zm-.08-9.3h1.872V-11.04H16.976ZM20.5-1.232V0h6.112V-1.472H22.752l3.792-5.3V-8H20.512v1.472H24.32Zm12.256-.88a1.658,1.658,0,0,1-1.648.784c-1.264,0-1.744-.976-1.744-2.224v-.032h4.784v-.88c0-2.368-1.04-3.68-3.232-3.68-2.1,0-3.248,1.232-3.248,3.584v1.088a3.291,3.291,0,0,0,3.5,3.616,2.909,2.909,0,0,0,2.864-1.36Zm-1.84-4.544c.976,0,1.456.592,1.52,1.76H29.376C29.456-5.984,29.92-6.656,30.912-6.656ZM43.888-4.032c2.56,0,4.064-1.28,4.064-3.52,0-2.272-1.52-3.488-4.064-3.488h-3.76V0h1.856V-4.032Zm-1.9-1.6V-9.424H43.7c1.7,0,2.4.672,2.4,1.872,0,1.264-.7,1.92-2.4,1.92ZM55.36-4.512c0-2.352-1.232-3.632-3.392-3.632S48.56-6.864,48.56-4.512V-3.5C48.56-1.3,49.728.144,51.968.144c2.352,0,3.392-1.52,3.392-3.648ZM51.968-1.328c-1.3,0-1.712-.976-1.712-2.224V-4.48c0-1.376.56-2.176,1.712-2.176,1.136,0,1.7.784,1.7,2.176v.928C53.664-2.3,53.184-1.328,51.968-1.328Zm11.36-3.184c0-2.352-1.232-3.632-3.392-3.632s-3.408,1.28-3.408,3.632V-3.5C56.528-1.3,57.7.144,59.936.144c2.352,0,3.392-1.52,3.392-3.648ZM59.936-1.328c-1.3,0-1.712-.976-1.712-2.224V-4.48c0-1.376.56-2.176,1.712-2.176,1.136,0,1.7.784,1.7,2.176v.928C61.632-2.3,61.152-1.328,59.936-1.328Zm4.9-1.184C64.832-.672,65.68,0,67.76,0V-1.5c-1.056,0-1.216-.544-1.216-1.408V-11.04H64.832Z" transform="translate(47 207)"/><path d="M-47.287-10.35V0h1.74V-4.365h4.155v-1.5h-4.155v-2.97h4.6V-10.35ZM-31.732,0l-2.205-4.485A2.7,2.7,0,0,0-32.062-7.26c0-2.055-1.425-3.09-3.81-3.09H-39.4V0h1.74V-4.2h2.01L-33.653,0Zm-5.925-5.7V-8.835h1.665c1.47,0,2.19.405,2.19,1.575s-.72,1.56-2.19,1.56Zm7.44-4.65V0h6.345V-1.5h-4.6V-4.605h4.155v-1.5h-4.155v-2.73h4.6V-10.35Zm8.01,0V0h6.345V-1.5h-4.605V-4.605h4.155v-1.5h-4.155v-2.73h4.605V-10.35Zm18.99,3.21a3.527,3.527,0,0,0-3.765-3.345c-2.31,0-3.87,1.395-3.87,4.65v1.32c0,3.255,1.56,4.65,3.87,4.65A3.465,3.465,0,0,0-3.232-3.21H-4.9A1.943,1.943,0,0,1-6.982-1.38c-1.38,0-2.13-.93-2.13-3.135v-1.32c0-2.235.75-3.135,2.13-3.135A1.969,1.969,0,0,1-4.9-7.14Zm8.88,2.625v-1.32c0-3.255-1.56-4.65-3.885-4.65s-3.87,1.395-3.87,4.65v1.32c0,3.255,1.56,4.65,3.87,4.65S5.663-1.26,5.663-4.515ZM-.352-5.835c0-2.235.75-3.135,2.13-3.135s2.145.9,2.145,3.135v1.32c0,2.235-.765,3.135-2.145,3.135s-2.13-.9-2.13-3.135ZM13.3-10.35v7.125L9.038-10.35h-1.5V0h1.68V-7.035L13.433,0h1.545V-10.35Zm2.94,0v1.515h2.985V0h1.74V-8.835h2.97V-10.35Zm8.955,0V0h6.345V-1.5h-4.6V-4.605h4.155v-1.5H26.933v-2.73h4.6V-10.35ZM39.908-8.79a3.862,3.862,0,0,0-3.54-1.695c-2.43,0-3.45,1.3-3.45,2.865,0,1.755,1.125,2.715,3.12,3.135,1.8.39,2.265.9,2.265,1.725,0,.75-.45,1.38-1.875,1.38A2.771,2.771,0,0,1,34.013-2.5l-1.365.945a4.426,4.426,0,0,0,3.87,1.7c2.49,0,3.525-1.425,3.525-2.97,0-1.86-1.08-2.64-3.165-3.09-1.44-.315-2.22-.7-2.22-1.7,0-.87.63-1.35,1.695-1.35a2.413,2.413,0,0,1,2.235,1.125Zm.72-1.56v1.515h2.985V0h1.74V-8.835h2.97V-10.35Z" transform="translate(283 226)"/><path d="M2.28-3.672h.576A1.265,1.265,0,0,1,4.308-2.328,1.175,1.175,0,0,1,3.1-1.1,1.231,1.231,0,0,1,1.728-2.16H.456A2.408,2.408,0,0,0,3.156.108a2.361,2.361,0,0,0,2.532-2.4,2.071,2.071,0,0,0-1.3-2A2.026,2.026,0,0,0,5.568-6.144,2.34,2.34,0,0,0,3.06-8.388,2.342,2.342,0,0,0,.564-6.18H1.836A1.122,1.122,0,0,1,3.012-7.2,1.1,1.1,0,0,1,4.188-6.108,1.166,1.166,0,0,1,2.856-4.872H2.28Zm9.732,1.248V-5.856a2.4,2.4,0,0,0-2.6-2.532A2.4,2.4,0,0,0,6.8-5.844v3.42A2.414,2.414,0,0,0,9.408.108,2.414,2.414,0,0,0,12.012-2.424ZM10.62-5.772v3.264c0,.888-.468,1.4-1.212,1.4s-1.224-.516-1.224-1.4V-5.772c0-.888.468-1.4,1.224-1.4S10.62-6.66,10.62-5.772ZM16.944-8.28H15.432L13.74-4.62a5.837,5.837,0,0,0-.672,2.172A2.427,2.427,0,0,0,15.684.108a2.424,2.424,0,0,0,2.6-2.58A2.277,2.277,0,0,0,16.056-4.92a1.8,1.8,0,0,0-.792.156ZM14.46-2.436a1.2,1.2,0,0,1,1.224-1.332A1.194,1.194,0,0,1,16.9-2.436,1.188,1.188,0,0,1,15.684-1.1,1.191,1.191,0,0,1,14.46-2.436ZM22.752-8.28V0h1.392V-3.492h3.324v-1.2H24.144V-7.068h3.684V-8.28ZM29.016,0H30.3V-6H29.016Zm-.06-6.972h1.4V-8.28h-1.4Zm2.9,5.088C31.86-.5,32.5,0,34.056,0V-1.128c-.792,0-.912-.408-.912-1.056v-6.1H31.86Zm3.4,0c0,1.38.636,1.884,2.2,1.884V-1.128c-.792,0-.912-.408-.912-1.056v-6.1H35.256Zm6.96.3A1.243,1.243,0,0,1,40.98-1c-.948,0-1.308-.732-1.308-1.668v-.024H43.26v-.66c0-1.776-.78-2.76-2.424-2.76-1.572,0-2.436.924-2.436,2.688V-2.6A2.468,2.468,0,0,0,41.028.108a2.182,2.182,0,0,0,2.148-1.02Zm-1.38-3.408c.732,0,1.092.444,1.14,1.32H39.684C39.744-4.488,40.092-4.992,40.836-4.992Zm7.248-.588a1.912,1.912,0,0,0-1.44-.528c-1.452,0-2.388.96-2.388,2.688V-2.6c0,1.572.792,2.712,2.388,2.712a1.884,1.884,0,0,0,1.44-.528V0h1.272V-8.28H48.084ZM46.812-1c-.924,0-1.284-.732-1.284-1.668v-.7c0-1.044.42-1.632,1.284-1.632.828,0,1.272.576,1.272,1.56v.768C48.084-1.728,47.772-1,46.812-1Z" transform="translate(460 257)"/><path class="f" d="M4.017-8.97H2.9l-1.287.988V-6.76L2.9-7.683V0H4.017ZM8.658,0H9.906l1.846-4.368a5.987,5.987,0,0,0,.611-2.08A2.5,2.5,0,0,0,9.776-9.074,2.509,2.509,0,0,0,7.189-6.4,2.394,2.394,0,0,0,9.542-3.77a1.774,1.774,0,0,0,.845-.182Zm2.587-6.4A1.485,1.485,0,0,1,9.776-4.732,1.492,1.492,0,0,1,8.307-6.4,1.485,1.485,0,0,1,9.776-8.06,1.479,1.479,0,0,1,11.245-6.4Zm5.2-2.574-3.159,6.7v.819h3.887V0h1.118V-1.456h.819V-2.47h-.819V-5.109H17.173V-2.47H14.586l2.964-6.5Zm8.58,0H23.907V0h5.408V-1.014h-4.29ZM34.1-1.56a1.54,1.54,0,0,1-1.547.728c-1.131,0-1.664-.884-1.664-2v-.182H35v-.676C35-5.551,34.138-6.6,32.422-6.6s-2.574,1.066-2.574,2.912v.858A2.646,2.646,0,0,0,32.63.1,2.285,2.285,0,0,0,34.9-.988ZM32.422-5.668c.988,0,1.469.65,1.521,1.742H30.888C30.953-5.005,31.421-5.668,32.422-5.668ZM35.958-6.5v.936h.832V0h1.04V-5.564h1.235V-6.5H37.83v-.208c0-.9.1-1.274.975-1.274h.26V-8.97h-.3c-1.534,0-1.976.65-1.976,2V-6.5Zm3.718.936h.832V-2c0,1.352.442,2,1.976,2h.559V-.988h-.52c-.871,0-.975-.377-.975-1.274v-3.3h1.495V-6.5H41.548V-7.93h-1.04V-6.5h-.832Z" transform="translate(460 275)"/><path class="g" d="M4.635-10.35H3.345L1.86-9.21V-7.8L3.345-8.865V0h1.29ZM14.22-7.485a2.869,2.869,0,0,0-2.97-2.985,2.873,2.873,0,0,0-2.97,3v4.59a2.873,2.873,0,0,0,2.97,3,2.869,2.869,0,0,0,2.97-2.985Zm-1.29,0v4.62A1.686,1.686,0,0,1,11.25-1.05,1.689,1.689,0,0,1,9.555-2.865v-4.62A1.689,1.689,0,0,1,11.25-9.3,1.686,1.686,0,0,1,12.93-7.485ZM25.05-8.04,27.405,0h1.3l2.52-10.35H29.88L28.005-2.175,25.68-10.35H24.405l-2.28,8.13L20.25-10.35H18.9L21.42,0h1.29ZM32.58,0h1.2V-7.5h-1.2ZM32.5-9h1.35v-1.35H32.5Zm3.45,9h1.2V-4.68a1.748,1.748,0,0,1,1.83-1.83c.885,0,1.71.33,1.71,1.845V0h1.2V-4.68c0-2.1-1.125-2.94-2.73-2.94a2.07,2.07,0,0,0-2.01.855V-7.5h-1.2Zm7.89,0h1.2V-4.68a1.748,1.748,0,0,1,1.83-1.83c.885,0,1.71.33,1.71,1.845V0h1.2V-4.68c0-2.1-1.125-2.94-2.73-2.94a2.07,2.07,0,0,0-2.01.855V-7.5h-1.2Zm12.42-1.8a1.777,1.777,0,0,1-1.785.84c-1.305,0-1.92-1.02-1.92-2.31v-.21H57.3v-.78c0-2.145-.99-3.36-2.97-3.36s-2.97,1.23-2.97,3.36v.99A3.053,3.053,0,0,0,54.57.12a2.636,2.636,0,0,0,2.625-1.26ZM54.33-6.54c1.14,0,1.695.75,1.755,2.01H52.56C52.635-5.775,53.175-6.54,54.33-6.54Zm9.81-.06A2.385,2.385,0,0,0,62-7.62a1.82,1.82,0,0,0-1.74.855V-7.5h-1.2V0h1.2V-4.695a1.631,1.631,0,0,1,1.6-1.815,1.426,1.426,0,0,1,1.26.63Zm5.94.225A2.912,2.912,0,0,0,67.35-7.62c-1.785,0-2.685.885-2.685,2.13,0,1.635,1.245,2.145,2.5,2.235,1.455.105,1.935.39,1.935,1.2,0,.675-.6,1.065-1.605,1.065a2.2,2.2,0,0,1-2.025-.765l-.885.63A3.177,3.177,0,0,0,67.485.12c1.935,0,2.82-.9,2.82-2.205,0-1.725-1.29-2.13-2.7-2.235-.99-.075-1.74-.33-1.74-1.185,0-.66.57-1,1.455-1a1.963,1.963,0,0,1,1.86.765Z" transform="translate(84.604 316.723)"/><path class="h" d="M9,13.5l3.048,3.048L15.1,13.5" transform="translate(162.822 299.531)"/><path class="g" d="M2.535-10.35H1.275V0h1.29V-7.545L5.04-2.16H6.195l2.52-5.43V0h1.29V-10.35H8.73L5.64-3.9ZM11.9-2.19C11.9-.735,12.84.12,14.58.12c.975,0,1.485-.165,1.905-.855V0h1.2V-5.2c0-1.8-.945-2.415-2.85-2.415A2.741,2.741,0,0,0,12.12-6.375l.9.63c.42-.69.9-.765,1.8-.765,1.17,0,1.665.24,1.665,1.3v.87H14.7C13.05-4.335,11.9-3.81,11.9-2.19Zm4.59-.69c0,1.68-.8,1.89-1.905,1.89-.885,0-1.485-.33-1.485-1.17,0-.75.42-1.155,1.6-1.155h1.785ZM25.695,0l-2.73-3.84L25.4-7.5h-1.41L22.26-4.845,20.535-7.5h-1.41l2.43,3.66L18.825,0h1.41L22.26-2.79,24.285,0ZM28.5-1.74H26.76V0H28.5Zm7.47-3.015h.645a1.841,1.841,0,0,1,2.1,1.965A1.7,1.7,0,0,1,36.99-1.05a1.766,1.766,0,0,1-1.935-1.545H33.8A2.88,2.88,0,0,0,36.99.12a2.9,2.9,0,0,0,3.015-2.94A2.573,2.573,0,0,0,38.31-5.37a2.557,2.557,0,0,0,1.545-2.355,2.768,2.768,0,0,0-2.97-2.745A2.749,2.749,0,0,0,33.93-7.83h1.26a1.582,1.582,0,0,1,1.7-1.485,1.6,1.6,0,0,1,1.68,1.56c0,1.125-.585,1.83-1.95,1.83H35.97Zm8.565-5.6v1.17h3.15V0h1.29V-9.18h3.15v-1.17ZM56.82-1.8a1.777,1.777,0,0,1-1.785.84c-1.305,0-1.92-1.02-1.92-2.31v-.21h4.74v-.78c0-2.145-.99-3.36-2.97-3.36s-2.97,1.23-2.97,3.36v.99A3.053,3.053,0,0,0,55.125.12,2.636,2.636,0,0,0,57.75-1.14ZM54.885-6.54c1.14,0,1.695.75,1.755,2.01H53.115C53.19-5.775,53.73-6.54,54.885-6.54ZM59.25-2.19c0,1.455.945,2.31,2.685,2.31.975,0,1.485-.165,1.9-.855V0h1.2V-5.2c0-1.8-.945-2.415-2.85-2.415a2.741,2.741,0,0,0-2.715,1.245l.9.63c.42-.69.9-.765,1.8-.765,1.17,0,1.665.24,1.665,1.3v.87H62.055C60.405-4.335,59.25-3.81,59.25-2.19Zm4.59-.69c0,1.68-.795,1.89-1.9,1.89-.885,0-1.485-.33-1.485-1.17,0-.75.42-1.155,1.6-1.155H63.84ZM67,0h1.2V-4.68a1.715,1.715,0,0,1,1.68-1.83c.885,0,1.56.48,1.56,1.845V0h1.2V-4.68a1.707,1.707,0,0,1,1.68-1.83c.885,0,1.56.48,1.56,1.845V0h1.2V-4.68c0-1.95-.975-2.94-2.58-2.94a2.583,2.583,0,0,0-2.25,1.185,2.32,2.32,0,0,0-2.19-1.185,2.03,2.03,0,0,0-1.86.855V-7.5H67Zm17.16-6.375a2.912,2.912,0,0,0-2.73-1.245c-1.785,0-2.685.885-2.685,2.13,0,1.635,1.245,2.145,2.5,2.235,1.455.105,1.935.39,1.935,1.2,0,.675-.6,1.065-1.6,1.065a2.2,2.2,0,0,1-2.025-.765l-.885.63A3.177,3.177,0,0,0,81.57.12c1.935,0,2.82-.9,2.82-2.205,0-1.725-1.29-2.13-2.7-2.235-.99-.075-1.74-.33-1.74-1.185,0-.66.57-1,1.455-1a1.963,1.963,0,0,1,1.86.765Z" transform="translate(279.657 316.723)"/><g transform="translate(419.207 304.309)"><g class="i" transform="translate(0)"><rect class="j" width="58.675" height="19.03" rx="2"/><rect class="k" x="0.25" y="0.25" width="58.175" height="18.53" rx="1.75"/></g><path class="g" d="M-15.876-1.092h-4.088l2.66-3.22a4.7,4.7,0,0,0,1.456-2.814A2.591,2.591,0,0,0-18.62-9.772a2.594,2.594,0,0,0-2.772,2.59h1.19A1.472,1.472,0,0,1-18.62-8.694a1.474,1.474,0,0,1,1.568,1.512,3.5,3.5,0,0,1-1.092,2.156l-3.4,4.018V0h5.67Zm7.084-5.894a2.678,2.678,0,0,0-2.772-2.786,2.681,2.681,0,0,0-2.772,2.8v4.284a2.681,2.681,0,0,0,2.772,2.8A2.678,2.678,0,0,0-8.792-2.674Zm-1.2,0v4.312A1.573,1.573,0,0,1-11.564-.98a1.576,1.576,0,0,1-1.582-1.694V-6.986A1.576,1.576,0,0,1-11.564-8.68,1.573,1.573,0,0,1-10-6.986ZM-.9-9.66-6.3,0h1.176L.266-9.66ZM1.82-2.688A1.918,1.918,0,0,0-.21-4.858a1.925,1.925,0,0,0-2,2.17v.6a1.934,1.934,0,0,0,2,2.2,1.924,1.924,0,0,0,2.03-2.2ZM-.21-.728c-.826,0-1.106-.588-1.106-1.372v-.56C-1.316-3.514-.924-4-.21-4,.546-4,.938-3.528.938-2.66v.56C.938-1.33.588-.728-.21-.728ZM-3.668-7.6A1.918,1.918,0,0,0-5.7-9.772a1.925,1.925,0,0,0-2,2.17V-7a1.934,1.934,0,0,0,2,2.2A1.924,1.924,0,0,0-3.668-7ZM-5.7-5.642c-.826,0-1.106-.588-1.106-1.372v-.56c0-.854.392-1.344,1.106-1.344.756,0,1.148.476,1.148,1.344v.56C-4.55-6.244-4.9-5.642-5.7-5.642Zm19-1.008A3.246,3.246,0,0,0,9.828-9.772c-2.142,0-3.5,1.288-3.5,4.41V-4.3c0,3.122,1.358,4.41,3.5,4.41A3.236,3.236,0,0,0,13.286-3.01H12.124C11.8-1.6,11.088-.98,9.828-.98c-1.484,0-2.3-.924-2.3-3.318V-5.362c0-2.394.812-3.318,2.3-3.318,1.19,0,1.96.518,2.3,2.03Zm1.624-3.01V0h3.262c2.478,0,3.332-1.372,3.332-2.772a2.145,2.145,0,0,0-1.9-2.268A2.194,2.194,0,0,0,21.21-7.2c0-1.61-1.078-2.464-3.332-2.464Zm1.2,5.194h1.834c1.6,0,2.352.532,2.352,1.694,0,1.05-.672,1.68-2.128,1.68H16.128Zm0-4.116h1.75c1.694,0,2.128.532,2.128,1.386,0,.952-.56,1.638-1.918,1.638h-1.96Z" transform="translate(29.929 13)"/></g><g transform="translate(509.598 304.309)"><g class="i" transform="translate(0)"><rect class="j" width="19.03" height="19.03" rx="2"/><rect class="k" x="0.25" y="0.25" width="18.53" height="18.53" rx="1.75"/></g><path class="g" d="M3.885-7.125A3.478,3.478,0,0,0,.165-10.47c-2.3,0-3.75,1.38-3.75,4.725v1.14C-3.585-1.26-2.13.12.165.12a3.467,3.467,0,0,0,3.7-3.345H2.625C2.28-1.71,1.515-1.05.165-1.05c-1.59,0-2.46-.99-2.46-3.555v-1.14c0-2.565.87-3.555,2.46-3.555,1.275,0,2.1.555,2.46,2.175Z" transform="translate(8.757 14)"/></g><g transform="translate(46.695 301.137)"><path class="f" d="M23.031,1.712H19.987Q20,1.207,20,.7a.7.7,0,0,0-.7-.7H4.418a.7.7,0,0,0-.7.7q0,.511.017,1.017H.7a.7.7,0,0,0-.7.7,15.066,15.066,0,0,0,2.292,8.274A7.252,7.252,0,0,0,7.8,14.26a7.137,7.137,0,0,0,1.505,1.264v3.089H8.141A2.559,2.559,0,0,0,5.584,21.17v1.166H5.535a.7.7,0,1,0,0,1.39H18.192a.7.7,0,1,0,0-1.39h-.049V21.17a2.559,2.559,0,0,0-2.557-2.557H14.42V15.524a7.132,7.132,0,0,0,1.505-1.264,7.253,7.253,0,0,0,5.509-3.578,15.066,15.066,0,0,0,2.292-8.274A.7.7,0,0,0,23.031,1.712ZM3.449,9.912A13.4,13.4,0,0,1,1.4,3.1H3.817a23.228,23.228,0,0,0,2.159,8.433q.278.556.58,1.051A6.7,6.7,0,0,1,3.449,9.912Zm13.3,11.258v1.166H6.974V21.17A1.168,1.168,0,0,1,8.141,20h7.445A1.168,1.168,0,0,1,16.752,21.17Zm-3.723-2.557H10.7V16.128a4.523,4.523,0,0,0,2.333,0Zm.43-4.139a.679.679,0,0,0-.09.046,3.246,3.246,0,0,1-3.013,0,.694.694,0,0,0-.091-.046,5.6,5.6,0,0,1-1.571-1.3.7.7,0,0,0-.089-.1A10.96,10.96,0,0,1,7.22,10.914a22.947,22.947,0,0,1-2.1-9.523H18.605a22.952,22.952,0,0,1-2.1,9.523,10.968,10.968,0,0,1-1.386,2.162.685.685,0,0,0-.089.1A5.6,5.6,0,0,1,13.46,14.474Zm6.817-4.562a6.7,6.7,0,0,1-3.108,2.674q.3-.495.58-1.051A23.232,23.232,0,0,0,19.909,3.1h2.413A13.4,13.4,0,0,1,20.277,9.912Zm0,0" transform="translate(0 0)"/></g><path d="M-40.436-17.281h7.109a2.661,2.661,0,0,0-.414-.906,2.393,2.393,0,0,0-.812-.7,4.549,4.549,0,0,0-1.3-.445,9.391,9.391,0,0,0-1.836-.156h-2.766l.016-2.922h15.047v2.922h-4.234a3.885,3.885,0,0,1,.742.984,3.672,3.672,0,0,1,.383,1.219h3.156v2.922h-3.25a4.6,4.6,0,0,1-.641,1.469,5.371,5.371,0,0,1-1.148,1.242,7.259,7.259,0,0,1-1.594.953,8.947,8.947,0,0,1-1.977.6v.063a5.868,5.868,0,0,1,1.023.578,6.686,6.686,0,0,1,.891.766,9.915,9.915,0,0,1,.852,1q.422.563.922,1.266L-25.8,0h-5.359l-3.563-5.578q-.516-.812-.977-1.422a5.387,5.387,0,0,0-.984-1.016,3.866,3.866,0,0,0-1.156-.617,4.674,4.674,0,0,0-1.477-.211h-1.125v-3.3H-37.7a6.794,6.794,0,0,0,1.516-.164,5.369,5.369,0,0,0,1.289-.461,3.8,3.8,0,0,0,.969-.7,2.428,2.428,0,0,0,.57-.891h-7.078ZM-9.453-3.776h-7.616l4.544-5.344c1.408-1.664,3.328-3.936,3.328-6.848,0-3.648-3.008-6.4-6.976-6.4-3.808,0-6.944,2.592-6.944,6.4h3.968A2.634,2.634,0,0,1-16.4-18.656a2.582,2.582,0,0,1,2.752,2.688c0,1.44-.672,2.784-2.048,4.384l-7.392,8.7V0H-9.453ZM.627-11.36c1.792,0,2.56,1.376,2.56,4.064,0,2.592-.96,3.808-2.56,3.808A2.538,2.538,0,0,1-2-5.7H-6.413C-6.061-1.792-2.957.288.755.288,5.3.288,7.667-2.3,7.667-7.52c0-5.28-2.368-7.872-5.76-7.872A4.506,4.506,0,0,0-1.357-14.24v-3.776H6.835V-22.08H-5.741V-9.728h4.032A2.484,2.484,0,0,1,.627-11.36Zm24-4c0-5.152-3.456-7.008-7.424-7.008s-7.424,1.856-7.424,7.04v8.576c0,4.96,3.456,7.04,7.424,7.04s7.424-2.08,7.424-7.04Zm-4.48.416v7.808c0,2.368-.96,3.648-2.944,3.648-2.016,0-2.976-1.28-2.976-3.648v-7.808c0-2.368.96-3.648,2.976-3.648C19.187-18.592,20.147-17.312,20.147-14.944Zm21.12-.416c0-5.152-3.456-7.008-7.424-7.008s-7.424,1.856-7.424,7.04v8.576c0,4.96,3.456,7.04,7.424,7.04s7.424-2.08,7.424-7.04Zm-4.48.416v7.808c0,2.368-.96,3.648-2.944,3.648-2.016,0-2.976-1.28-2.976-3.648v-7.808c0-2.368.96-3.648,2.976-3.648C35.827-18.592,36.787-17.312,36.787-14.944Z" transform="translate(90 244)"/></g></svg>