<svg xmlns="http://www.w3.org/2000/svg" width="58.823" height="64.892" viewBox="0 0 58.823 64.892"><path d="M-507.4-611.591a14.036,14.036,0,0,1-1.812-.674,6.094,6.094,0,0,1-3.5-5.6c-.04-3.42-.022-6.842-.007-10.263a6.3,6.3,0,0,1,6.293-6.274c1.414-.007,2.829,0,4.348,0v-.809q0-19.766,0-39.531c0-1.369.36-1.733,1.712-1.733q18.309,0,36.617-.011a2.171,2.171,0,0,1,1.682.682q3.739,3.786,7.525,7.526a1.967,1.967,0,0,1,.626,1.513c-.017,5.575-.009,11.15-.012,16.725a2.671,2.671,0,0,1-.052.69,1.241,1.241,0,0,1-1.369.877,1.233,1.233,0,0,1-1.1-1.123c-.018-.188-.007-.38-.007-.57q0-7.444,0-14.888v-.781h-6.4c-1.321,0-1.708-.381-1.708-1.679,0-2.111,0-4.221,0-6.381H-499.5V-634.4h.733q12.829,0,25.657,0a6.3,6.3,0,0,1,6.457,5.428,6.34,6.34,0,0,1,.054,1.073c0,2.914-.03,5.829.015,8.742a7.555,7.555,0,0,1-1.248,4.991h11.377v-.706q0-11.467,0-22.933c0-.211-.012-.424.007-.633a1.265,1.265,0,0,1,1.281-1.152,1.258,1.258,0,0,1,1.235,1.131,4.992,4.992,0,0,1,.008.506q0,12.354.012,24.707a1.609,1.609,0,0,1-.9,1.652Zm17.787-20.278q-8.234,0-16.467,0a3.848,3.848,0,0,0-4.11,4.121q0,4.75,0,9.5a3.849,3.849,0,0,0,4.111,4.123q16.4,0,32.808,0a3.859,3.859,0,0,0,4.143-4.156q0-4.687,0-9.374a3.864,3.864,0,0,0-4.208-4.215Zm27.615-36.556h3.506l-3.506-3.492Z" transform="translate(512.731 676.483)"/><path d="M-384.391-608.782c-.474-.445-.936-.848-1.362-1.286a1.251,1.251,0,0,1-.067-1.9,1.248,1.248,0,0,1,1.858.089c.451.438.863.916,1.282,1.365a13.833,13.833,0,0,1,17.238.078c.371-.441.736-.928,1.157-1.361a1.264,1.264,0,0,1,1.946-.161,1.269,1.269,0,0,1-.129,1.95c-.414.418-.863.8-1.317,1.218a12.6,12.6,0,0,1,2.656,4.887,16.647,16.647,0,0,1,.576,3.729c.071,4.095.028,8.191.026,12.287,0,1.051-.45,1.5-1.5,1.5q-12.066,0-24.131,0c-1.038,0-1.482-.458-1.482-1.519q0-6.049,0-12.1a13.32,13.32,0,0,1,2.89-8.322C-384.662-608.443-384.57-608.557-384.391-608.782Zm21.351,9.444c-.031-4.541-1.8-8.078-5.769-10.238a10.439,10.439,0,0,0-11.836.818,10.776,10.776,0,0,0-4.464,9.42Zm-.046,2.6h-21.975v7.784h21.975Z" transform="translate(408.819 624.157)"/><path d="M-177.754-490.951a1.231,1.231,0,0,1-1.294,1.241,1.233,1.233,0,0,1-1.232-1.242,1.267,1.267,0,0,1,1.265-1.286A1.259,1.259,0,0,1-177.754-490.951Z" transform="translate(236.563 523.43)"/><path d="M-464.895-387.061c-.114.309-.209.588-.319.86a1.29,1.29,0,0,1-1.666.846,1.269,1.269,0,0,1-.732-1.71c.653-1.843,1.328-3.679,2-5.517.524-1.443,1.058-2.882,1.573-4.328a1.316,1.316,0,0,1,1.2-1.04,1.309,1.309,0,0,1,1.339.944c1.408,3.242,2.829,6.48,4.239,9.721a1.309,1.309,0,0,1-.6,1.909,1.266,1.266,0,0,1-1.728-.9,1.075,1.075,0,0,0-1.252-.8C-462.17-387.02-463.5-387.061-464.895-387.061Zm3.819-2.563-1.581-3.613-1.31,3.613Z" transform="translate(475.33 445.107)"/><path d="M-324.344-394.856c.871-.884,1.746-1.763,2.612-2.653a1.333,1.333,0,0,1,1.483-.431,1.268,1.268,0,0,1,.4,2.169c-1.056,1.093-2.141,2.159-3.221,3.228-.269.266-.567.5-.892.788.209.229.341.384.485.528,1.178,1.181,2.362,2.356,3.535,3.542a1.324,1.324,0,0,1,.182,1.958,1.323,1.323,0,0,1-2-.159c-.868-.861-1.725-1.733-2.718-2.732,0,.734.005,1.31,0,1.885a1.252,1.252,0,0,1-1.294,1.389,1.246,1.246,0,0,1-1.232-1.386q-.007-4.941,0-9.882a1.244,1.244,0,0,1,1.283-1.4,1.248,1.248,0,0,1,1.244,1.374c.007.567,0,1.134,0,1.7Z" transform="translate(358.456 445.162)"/><path d="M-387.36-390.379c0,1.269,0,2.448,0,3.627,0,.886-.477,1.429-1.242,1.441-.8.012-1.285-.536-1.286-1.458q0-4.874,0-9.748c0-1.006.458-1.456,1.473-1.459.971,0,1.941-.008,2.912,0a3.77,3.77,0,0,1,3.719,3.771,3.778,3.778,0,0,1-3.734,3.824C-386.106-390.373-386.694-390.379-387.36-390.379Zm.03-2.529c.247,0,.453,0,.659,0,.379,0,.76.021,1.135-.014a1.3,1.3,0,0,0,1.214-1.3,1.29,1.29,0,0,0-1.231-1.215c-.581-.035-1.166-.007-1.777-.007Z" transform="translate(410.687 445.13)"/><path d="M-340.54-565.63a1.235,1.235,0,0,1,1.238,1.3,1.247,1.247,0,0,1-1.254,1.227,1.3,1.3,0,0,1-1.291-1.274A1.29,1.29,0,0,1-340.54-565.63Z" transform="translate(370.777 584.397)"/><path d="M-287.072-565.629a1.281,1.281,0,0,1,1.314,1.244,1.3,1.3,0,0,1-1.283,1.282,1.248,1.248,0,0,1-1.261-1.219A1.237,1.237,0,0,1-287.072-565.629Z" transform="translate(326.297 584.396)"/></svg>