<svg xmlns="http://www.w3.org/2000/svg" width="46.578" height="61.98" viewBox="0 0 46.578 61.98"><g transform="translate(-1989.181 1037.819)"><path d="M2063.755-1037.819c.483.122.97.231,1.448.37a9.279,9.279,0,0,1,6.678,8.736c0,.886-.647,1.43-1.4,1.148a1.082,1.082,0,0,1-.687-1.1,7.208,7.208,0,0,0-5.771-6.914,7.215,7.215,0,0,0-8.634,6.658c-.019.6-.115,1.15-.762,1.364-.772.255-1.425-.34-1.375-1.262a9.235,9.235,0,0,1,3.5-6.958,8.892,8.892,0,0,1,4.362-1.933,2.046,2.046,0,0,0,.34-.112Z" transform="translate(-55.697)"/><path d="M2011.929-985.448a5.081,5.081,0,0,1,7.355,1.839,5,5,0,0,1,8.145,1.941c.151-.1.3-.185.441-.282a5.026,5.026,0,0,1,7.779,3.6,10.439,10.439,0,0,1,.07,1.086c.013,6.436.074,12.872.01,19.307a12.493,12.493,0,0,1-5.979,11.027,10.5,10.5,0,0,1-5.727,1.655q-6.355.015-12.71,0a11.2,11.2,0,0,1-10.345-6.095c-2.838-5.124-5.449-10.373-8.157-15.569q-1.675-3.214-3.347-6.43c-.461-.887-.382-1.219.393-1.867a9.316,9.316,0,0,1,3.547-2.234,6.614,6.614,0,0,1,6.841,1.919c.544.565,1.022,1.193,1.646,1.929,0-.367,0-.593,0-.818q.005-11.349.012-22.7a5.262,5.262,0,0,1,2.629-4.861,4.933,4.933,0,0,1,7.26,3.417,7.272,7.272,0,0,1,.13,1.44c.01,3.652.006,7.3.006,10.955Zm-20.356,11.572,1.715,3.3c3.067,5.894,6.117,11.8,9.208,17.68a9.665,9.665,0,0,0,9.186,5.558c3.933-.018,7.867-.008,11.8,0a9.349,9.349,0,0,0,6.02-1.983,10.473,10.473,0,0,0,4.086-8.463c.055-5.365.016-10.731.017-16.1,0-1.21.007-2.421,0-3.631a3.047,3.047,0,0,0-2.823-3.192,2.981,2.981,0,0,0-3.049,2.885c-.078.881-.019,1.774-.039,2.661a1.058,1.058,0,0,1-1.054,1.151,1.057,1.057,0,0,1-1.023-1.178c-.006-1.432.006-2.865-.007-4.3a5.291,5.291,0,0,0-.118-1.078,2.923,2.923,0,0,0-2.661-2.339,2.865,2.865,0,0,0-2.784,2.179,4.736,4.736,0,0,0-.137,1.193c-.016,1.553.005,3.107-.014,4.66a1.079,1.079,0,0,1-1.077,1.144,1.093,1.093,0,0,1-1.046-1.118c-.012-.181,0-.363,0-.545,0-2,.022-3.995-.021-5.991a2.973,2.973,0,0,0-2.778-2.846,2.848,2.848,0,0,0-2.943,2.344,4.358,4.358,0,0,0-.092.9c-.008,2.259,0,4.519-.008,6.778a1.009,1.009,0,0,1-1.01,1.114,1.01,1.01,0,0,1-1.068-1.056c-.014-.221-.007-.443-.007-.665q0-11.014,0-22.028a7.594,7.594,0,0,0-.083-1.2,2.969,2.969,0,0,0-2.554-2.463,2.757,2.757,0,0,0-2.894,1.824,5.022,5.022,0,0,0-.268,1.709q-.041,12.89-.044,25.78c0,.616.035,1.251-.687,1.524-.761.287-1.145-.26-1.545-.748-.974-1.184-1.9-2.408-2.941-3.532a5.463,5.463,0,0,0-1.838-1.319C1994.894-976.146,1993.14-975.432,1991.573-973.876Z" transform="translate(0 -30.575)"/></g></svg>