<svg xmlns="http://www.w3.org/2000/svg" xmlns:xlink="http://www.w3.org/1999/xlink" width="143.125" height="28.867" viewBox="0 0 143.125 28.867"><defs><style>.a{fill:url(#a);}.b{fill:url(#b);}.c{fill:url(#c);}.d{fill:url(#d);}</style><linearGradient id="a" x1="-0.36" y1="-1.531" x2="0.727" y2="1.358" gradientUnits="objectBoundingBox"><stop offset="0" stop-color="#00111a"/><stop offset="1" stop-color="#212e35"/></linearGradient><linearGradient id="b" x1="0.174" y1="0.298" x2="1.021" y2="0.746" xlink:href="#a"/><linearGradient id="c" x1="0.23" y1="0.016" x2="0.563" y2="0.393" gradientUnits="objectBoundingBox"><stop offset="0" stop-color="#f77e0b"/><stop offset="1" stop-color="#ffbe00"/></linearGradient><linearGradient id="d" x1="0.5" y1="-0.393" x2="0.5" y2="1.166" xlink:href="#a"/></defs><g transform="translate(-86.273 -246.376)"><g transform="translate(86.273 246.376)"><path class="a" d="M131.632,445.539h11.343a3.307,3.307,0,0,0-3.307-3.307h-4.729a3.307,3.307,0,0,0-3.307,3.307Z" transform="translate(-125.712 -416.672)"/><path class="b" d="M157.07,275.338h-3.03c.011.843-.006,1.958-.1,3.228a32.89,32.89,0,0,1-.741,5.024h-4.93a4.05,4.05,0,0,0-4.05-4.05h-1.714l2.74,3.024h0v12.011l-1.276,1.276a.456.456,0,0,0,.323.779h4.931a.456.456,0,0,0,.323-.779l-1.276-1.276v-7.961h4.022a17.252,17.252,0,0,1-1.722,3.428,3.4,3.4,0,0,0,.4,4.257c4.427-4.345,5.7-11.081,6.011-15.732C157.067,277.309,157.083,276.2,157.07,275.338Z" transform="translate(-135.168 -271.558)"/><path class="c" d="M86.273,246.376v2.5a1.28,1.28,0,0,0,1.28,1.28c-.057,4.058.474,13.441,6.1,18.961l.031-.032a3.359,3.359,0,0,0,.377-4.216,20.881,20.881,0,0,1-2.85-7.487h5.142v-1.948a1.076,1.076,0,0,0-1.076-1.076H90.77a38.248,38.248,0,0,1-.185-4.2h17.591a1.28,1.28,0,0,0,1.28-1.28v-2.5Z" transform="translate(-86.273 -246.376)"/></g><g transform="translate(114.879 251.988)"><path class="d" d="M309.2,289.38h13.807l-.946,4.474h-7.237l-.537,2.659h6.751l-.972,4.475h-6.75l-1.253,6.034h-6.6Z" transform="translate(-305.471 -289.38)"/><path class="d" d="M434.7,300.682l-1.3,6.341h-6.622L430.5,289.38h8.847c4.474,0,6.239,2.147,6.239,4.526a4.762,4.762,0,0,1-3.759,4.756c1.509.562,2.25,2.1,1.687,4.73a24.9,24.9,0,0,0-.588,3.631h-6.367a13.832,13.832,0,0,1,.486-4.04c.307-1.432.307-2.3-1.407-2.3Zm.895-3.989h1.151c1.33,0,2.148-.665,2.148-1.943a1.265,1.265,0,0,0-1.432-1.381h-1.176Z" transform="translate(-410.941 -289.38)"/><path class="d" d="M583.043,300.426h-7.211l-.46,2.122h8.335l-1.636,4.475H568.059l3.734-17.643h13.883l-.92,4.474h-7.492l-.461,2.1h7.21Z" transform="translate(-533.79 -289.38)"/><path class="d" d="M710.613,300.426H703.4l-.46,2.122h8.335l-1.637,4.475H695.629l3.734-17.643h13.884l-.921,4.474h-7.491l-.461,2.1h7.21Z" transform="translate(-644.711 -289.38)"/><path class="d" d="M826.938,289.38h6.75l-1.33,6.265H835.4l1.329-6.265h6.776l-3.733,17.643H833l1.406-6.9h-3.043l-1.406,6.9H823.2Z" transform="translate(-755.638 -289.38)"/><path class="d" d="M981.839,289.38l-3.733,17.643h-6.751l3.733-17.643Z" transform="translate(-884.455 -289.38)"/><path class="d" d="M1061.388,293.854h-4.4l.972-4.474h15.469l-.971,4.474h-4.347l-2.761,13.169h-6.725Z" transform="translate(-958.913 -289.38)"/></g></g></svg>