<svg xmlns="http://www.w3.org/2000/svg" width="64" height="64.005" viewBox="0 0 64 64.005"><path d="M-281.244-590.831a17.826,17.826,0,0,1-1.361,2.888,5.71,5.71,0,0,1-4.741,2.483c-2.373.048-4.748.026-7.123.026-7.582,0-15.163-.033-22.744.016a6.454,6.454,0,0,1-6.433-4.634,9.306,9.306,0,0,1-.264-2.157q-.053-2.9,0-5.811a.919.919,0,0,0-.589-.954c-3.6-1.9-7.193-3.834-10.8-5.736a2.265,2.265,0,0,1-1.427-2.024,2.254,2.254,0,0,1,1.425-2.087c3.585-1.894,7.154-3.819,10.743-5.705a1.01,1.01,0,0,0,.646-1.045c-.02-2.228-.055-4.459.045-6.684a6.228,6.228,0,0,1,6.02-5.814c7.435-.043,14.871-.023,22.307-.027,2.645,0,5.291-.027,7.935.011a6.322,6.322,0,0,1,6.233,5.11,1.373,1.373,0,0,0,.124.268Zm-53.291-15.941c.26.144.439.247.622.345,3.723,1.987,7.438,3.989,11.176,5.948a1.645,1.645,0,0,1,.993,1.682c-.039,2.27-.018,4.54-.012,6.811a4.235,4.235,0,0,0,4.4,4.41q14.778.005,29.556,0a4.255,4.255,0,0,0,4.423-4.406q.02-14.778,0-29.556a4.265,4.265,0,0,0-4.474-4.422q-14.715,0-29.431,0a4.248,4.248,0,0,0-4.472,4.466c0,2.291-.02,4.583.01,6.873a1.467,1.467,0,0,1-.929,1.529c-.417.186-.811.423-1.214.638Z" transform="translate(345.244 639.832)"/><path d="M-354.754-698.33a7.942,7.942,0,0,1,3.059,1.444,6.221,6.221,0,0,1,2.314,4.6c.035.811.033,1.625.017,2.436a1.064,1.064,0,0,1-1.069,1.135,1.107,1.107,0,0,1-1.064-1.155,22.693,22.693,0,0,0-.128-2.923,4.127,4.127,0,0,0-4.068-3.382.878.878,0,0,0-.647.4c-.7,1.322-1.365,2.662-2.021,4.007a3.272,3.272,0,0,1-3.186,1.983q-7-.012-14,0a3.308,3.308,0,0,1-3.226-2.024c-.626-1.291-1.3-2.559-1.913-3.856a.78.78,0,0,0-.906-.526,4.319,4.319,0,0,0-4.032,4.245c0,.125,0,.25,0,.375q0,25.246,0,50.492a4.283,4.283,0,0,0,3.118,4.436,5.467,5.467,0,0,0,1.417.181q12.529.016,25.058.005A4.272,4.272,0,0,0-351.5-640.7a1.108,1.108,0,0,1,1.11-1.11,1.08,1.08,0,0,1,1.023,1.181,6.344,6.344,0,0,1-6.164,6.287q-13.029.034-26.058,0a6.327,6.327,0,0,1-6.157-6.167q-.021-25.809,0-51.617a6.362,6.362,0,0,1,5.08-6.076,4.159,4.159,0,0,0,.41-.128Zm-23.786,2.155c.653,1.295,1.245,2.549,1.928,3.753a1.25,1.25,0,0,0,.942.456q7.12.043,14.24,0a1.192,1.192,0,0,0,.9-.416c.691-1.217,1.3-2.482,1.97-3.795Z" transform="translate(387.753 698.33)"/><path d="M-320.66-351.258q-4.154,0-8.308,0c-.814,0-1.28-.443-1.228-1.152a.963.963,0,0,1,.888-.964,4.527,4.527,0,0,1,.686-.024h15.991c.125,0,.25,0,.375,0,.783.02,1.259.434,1.247,1.083s-.491,1.056-1.279,1.057Q-316.474-351.253-320.66-351.258Z" transform="translate(339.811 411.002)"/><path d="M-197.28-573.771v-.752q0-6.373,0-12.746a2.18,2.18,0,0,1,2.471-2.5q3.968,0,7.935,0a2.189,2.189,0,0,1,2.43,2.434q.008,6.373,0,12.746v.82c1,0,1.947,0,2.9,0a2.144,2.144,0,0,1,2.247,1.335,2.192,2.192,0,0,1-.627,2.493q-4.651,4.626-9.282,9.273a2.128,2.128,0,0,1-3.295.025q-4.691-4.675-9.369-9.363a2.079,2.079,0,0,1-.563-2.442,2.089,2.089,0,0,1,2.131-1.323C-199.325-573.762-198.349-573.771-197.28-573.771Zm6.342,11.479,9.345-9.345c-1.069,0-2.276,0-3.483,0-1.239,0-1.554-.313-1.554-1.546q0-6.841,0-13.683v-.734h-8.507v.769q0,6.9,0,13.808c0,.5-.023.992-.535,1.233a2.089,2.089,0,0,1-.843.148c-1.257.015-2.514.007-3.773.007Z" transform="translate(233.536 607.9)"/></svg>